<svg width="18" height="16" viewBox="0 0 18 16" fill="none" xmlns="http://www.w3.org/2000/svg">
<path d="M1.33336 13V15V1V13ZM1.94836 16C1.50169 16 1.12069 15.8427 0.805359 15.528C0.490692 15.2133 0.333359 14.8323 0.333359 14.385V1.615C0.333359 1.16833 0.490692 0.787333 0.805359 0.472C1.12003 0.157333 1.50103 0 1.94836 0H14.7184C15.165 0 15.546 0.157333 15.8614 0.472C16.176 0.786667 16.3334 1.16767 16.3334 1.615V4.558H15.3334V1.615C15.3334 1.43567 15.2757 1.28833 15.1604 1.173C15.045 1.05767 14.8977 1 14.7184 1H1.94836C1.76903 1 1.62169 1.05767 1.50636 1.173C1.39103 1.28833 1.33336 1.43567 1.33336 1.615V14.385C1.33336 14.5643 1.39103 14.7117 1.50636 14.827C1.62169 14.9423 1.76903 15 1.94836 15H14.7184C14.8977 15 15.045 14.9423 15.1604 14.827C15.2757 14.7117 15.3334 14.5643 15.3334 14.385V11.442H16.3334V14.385C16.3334 14.8317 16.176 15.2127 15.8614 15.528C15.5467 15.8427 15.1657 16 14.7184 16H1.94836ZM9.94836 12C9.50169 12 9.12069 11.8427 8.80536 11.528C8.49069 11.2133 8.33336 10.8323 8.33336 10.385V5.615C8.33336 5.16833 8.49069 4.78733 8.80536 4.472C9.12003 4.15733 9.50103 4 9.94836 4H15.7184C16.165 4 16.546 4.15733 16.8614 4.472C17.176 4.78667 17.3334 5.16767 17.3334 5.615V10.385C17.3334 10.8317 17.176 11.2127 16.8614 11.528C16.5467 11.8427 16.1657 12 15.7184 12H9.94836ZM15.7184 11C15.8977 11 16.045 10.9423 16.1604 10.827C16.2757 10.7117 16.3334 10.5643 16.3334 10.385V5.615C16.3334 5.43567 16.2757 5.28833 16.1604 5.173C16.045 5.05767 15.8977 5 15.7184 5H9.94836C9.76902 5 9.62169 5.05767 9.50636 5.173C9.39103 5.28833 9.33336 5.43567 9.33336 5.615V10.385C9.33336 10.5643 9.39103 10.7117 9.50636 10.827C9.62169 10.9423 9.76902 11 9.94836 11H15.7184ZM12.3334 9.5C12.75 9.5 13.1044 9.354 13.3964 9.062C13.6884 8.77 13.834 8.416 13.8334 8C13.8334 7.58333 13.6874 7.229 13.3954 6.937C13.1034 6.645 12.7494 6.49933 12.3334 6.5C11.9167 6.5 11.5624 6.646 11.2704 6.938C10.9784 7.23 10.8327 7.584 10.8334 8C10.8334 8.41667 10.9794 8.771 11.2714 9.063C11.5634 9.355 11.9174 9.50067 12.3334 9.5Z" fill="#CACACA"/>
</svg>
